<?xml version="1.0" encoding="utf-8"?>
<svg viewBox="3.423 75.82 565.159 290.235" width="565.159" height="290.235" xmlns="http://www.w3.org/2000/svg">
  <g transform="matrix(0.274349, 0, 0, -0.32704, -504.122803, 952.614319)" fill="#000000" stroke="none" style="">
    <path d="M2566 2671 c-4 -5 -5 -100 -4 -211 l2 -201 61 0 c33 -1 83 -2 112 -3 42 -1 56 4 77 23 14 13 28 33 32 43 5 16 11 13 44 -24 37 -42 39 -43 103 -43 51 0 72 5 93 21 39 28 40 40 5 58 -27 14 -32 14 -59 -1 -25 -14 -35 -15 -56 -5 -14 6 -26 18 -26 27 0 12 15 15 84 15 l84 0 7 -30 c3 -16 22 -43 42 -60 32 -29 40 -31 82 -26 25 3 72 6 104 5 l57 0 0 211 0 211 -42 -3 -43 -3 -3 -93 c-2 -83 -5 -92 -18 -81 -19 16 -92 16 -122 0 -13 -7 -31 -25 -41 -42 l-18 -29 -13 26 c-19 35 -66 57 -121 58 -51 0 -96 -26 -119 -68 l-13 -26 -15 29 c-26 54 -86 77 -154 58 l-27 -7 -3 87 -3 88 -42 3 c-22 2 -44 -1 -47 -7z m464 -236 c11 -13 6 -15 -33 -15 -37 0 -45 3 -41 15 4 8 18 15 34 15 15 0 33 -7 40 -15z m-288 -12 c20 -18 24 -63 6 -81 -7 -7 -24 -12 -38 -12 -35 0 -50 17 -50 57 0 49 46 69 82 36z m562 1 c19 -18 21 -65 4 -82 -7 -7 -24 -12 -38 -12 -33 0 -50 17 -50 51 0 32 23 59 50 59 10 0 26 -7 34 -16z"/>
    <path d="M1870 2460 l0 -200 45 0 44 0 3 110 3 110 52 -92 52 -92 -26 -49 -27 -48 -70 2 -71 2 -3 -41 -3 -42 85 0 85 0 -94 -152 c-52 -84 -95 -156 -95 -160 0 -5 77 -8 170 -8 l170 0 0 45 0 45 -89 0 -90 0 95 151 c52 82 94 152 94 155 0 2 -16 4 -35 4 -19 0 -35 3 -35 6 0 3 33 69 73 147 39 78 74 145 75 149 2 5 -19 8 -48 8 l-51 0 -29 -61 -29 -61 -30 54 c-17 29 -31 56 -31 61 0 4 -22 7 -50 7 l-50 0 0 75 0 75 -45 0 -45 0 0 -200z"/>
    <path d="M2345 2505 c-108 -39 -123 -168 -26 -232 89 -60 231 1 234 99 3 105 -102 172 -208 133z m95 -85 c38 -38 15 -90 -40 -90 -50 0 -69 66 -28 94 30 21 44 20 68 -4z"/>
    <path d="M2480 2010 l0 -210 45 0 45 0 0 47 0 47 48 -47 c45 -44 51 -47 100 -47 29 0 52 3 52 7 0 4 -27 35 -60 68 l-60 61 55 54 c30 30 55 57 55 60 0 3 -26 3 -57 2 -51 -3 -63 -8 -95 -40 l-38 -36 0 122 0 122 -45 0 -45 0 0 -210z"/>
    <path d="M3300 2190 c-11 -11 -20 -28 -20 -38 0 -24 31 -52 58 -52 21 0 52 34 52 57 0 18 -37 53 -55 53 -8 0 -24 -9 -35 -20z"/>
    <path d="M2259 2037 c-95 -63 -82 -189 23 -231 52 -21 108 -13 148 21 37 31 37 38 1 53 -21 8 -35 9 -49 1 -38 -20 -92 -8 -92 21 0 4 38 8 85 8 98 0 106 7 83 68 -29 77 -129 106 -199 59z m111 -52 c11 -13 6 -15 -35 -15 -41 0 -46 2 -35 15 7 8 23 15 35 15 12 0 28 -7 35 -15z"/>
    <path d="M2806 2039 c-82 -65 -71 -197 20 -235 36 -15 87 -12 111 8 7 6 14 5 18 -2 3 -5 24 -10 46 -10 l39 0 0 124 0 124 -41 4 c-22 2 -43 0 -45 -4 -3 -5 -14 -4 -24 2 -32 17 -95 12 -124 -11z m132 -71 c28 -28 4 -98 -34 -98 -33 0 -54 21 -54 53 0 40 15 57 50 57 14 0 31 -5 38 -12z"/>
    <path d="M3183 2044 c-14 -10 -23 -12 -23 -5 0 6 -18 11 -45 11 l-45 0 0 -125 0 -125 44 0 44 0 4 80 c4 90 13 104 64 96 25 -3 34 1 47 22 16 26 16 23 17 -85 l0 -113 45 0 45 0 0 125 0 125 -37 0 c-21 0 -60 2 -88 5 -37 4 -56 1 -72 -11z"/>
    <path d="M3447 2040 c-56 -44 -71 -112 -41 -175 29 -61 100 -88 156 -61 22 11 34 13 38 5 4 -6 25 -9 46 -7 l39 3 3 123 3 123 -58 0 c-32 -1 -81 2 -108 5 -42 5 -55 2 -78 -16z m139 -85 c33 -50 -20 -104 -71 -71 -27 18 -34 63 -13 84 21 21 66 14 84 -13z"/>
    <path d="M3739 2031 c-16 -16 -29 -39 -29 -51 0 -24 51 -80 73 -80 8 0 20 -7 27 -15 19 -23 -12 -30 -48 -11 -29 15 -31 15 -47 -10 -9 -14 -14 -32 -11 -39 7 -20 80 -37 121 -29 56 10 85 39 85 83 0 43 -16 61 -74 85 -29 12 -37 19 -29 27 8 8 20 8 42 1 29 -10 32 -9 46 19 15 28 15 30 -10 39 -15 6 -47 10 -71 10 -37 0 -51 -6 -75 -29z"/>
  </g>
</svg>