<?xml version="1.0" standalone="no"?>
<!DOCTYPE svg PUBLIC "-//W3C//DTD SVG 20010904//EN"
 "http://www.w3.org/TR/2001/REC-SVG-20010904/DTD/svg10.dtd">
<svg version="1.0" xmlns="http://www.w3.org/2000/svg"
 width="500.000000pt" height="500.000000pt" viewBox="0 0 500.000000 500.000000"
 preserveAspectRatio="xMidYMid meet">
<metadata>
Created by potrace 1.14, written by Peter Selinger 2001-2017
</metadata>
<g transform="translate(0.000000,500.000000) scale(0.100000,-0.100000)"
fill="#000000" stroke="none">
<path d="M1434 3368 c3 -35 9 -181 12 -325 l7 -263 197 0 197 0 7 268 c3 147
9 293 12 325 l6 57 -222 0 -222 0 6 -62z"/>
<path d="M2086 3418 c12 -21 125 -168 128 -168 2 0 41 18 88 40 154 72 215 82
531 87 152 3 277 3 277 0 0 -3 -81 -138 -180 -299 l-179 -293 231 -3 c178 -2
235 1 243 10 7 7 85 133 173 279 148 243 162 270 162 312 l0 47 -741 0 c-589
0 -739 -3 -733 -12z"/>
<path d="M1446 1958 c-3 -161 -9 -321 -12 -355 l-6 -63 222 0 222 0 -6 53 c-3
28 -8 188 -12 355 l-7 302 -197 0 -197 0 -7 -292z"/>
<path d="M2231 1938 c-170 -277 -191 -317 -191 -355 l0 -43 748 0 749 0 41 91
c23 50 36 89 29 86 -67 -25 -253 -80 -332 -98 -89 -19 -138 -22 -442 -26
l-343 -5 200 326 c110 180 200 328 200 331 0 3 -105 5 -234 5 l-234 0 -191
-312z"/>
</g>
</svg>
